<svg width="20" height="18" viewBox="0 0 20 18" fill="none" xmlns="http://www.w3.org/2000/svg">
<path d="M10.8837 0.875016C10.6493 0.640677 10.3315 0.509033 10 0.509033C9.66854 0.509033 9.35066 0.640677 9.11625 0.875016L0.807496 9.18252C0.749386 9.24063 0.703291 9.30961 0.671842 9.38554C0.640393 9.46146 0.624207 9.54284 0.624207 9.62502C0.624207 9.7072 0.640393 9.78857 0.671842 9.8645C0.703291 9.94042 0.749386 10.0094 0.807496 10.0675C0.924854 10.1849 1.08403 10.2508 1.25 10.2508C1.33218 10.2508 1.41355 10.2346 1.48948 10.2032C1.5654 10.1717 1.63439 10.1256 1.6925 10.0675L2.5 9.25877V15.875C2.5 16.3723 2.69754 16.8492 3.04917 17.2008C3.4008 17.5525 3.87772 17.75 4.375 17.75H15.625C16.1223 17.75 16.5992 17.5525 16.9508 17.2008C17.3025 16.8492 17.5 16.3723 17.5 15.875V9.25877L18.3075 10.0675C18.4249 10.1849 18.584 10.2508 18.75 10.2508C18.916 10.2508 19.0751 10.1849 19.1925 10.0675C19.3099 9.95016 19.3758 9.79099 19.3758 9.62502C19.3758 9.45905 19.3099 9.29987 19.1925 9.18252L16.25 6.24127V2.12502C16.25 1.95926 16.1841 1.80028 16.0669 1.68307C15.9497 1.56586 15.7908 1.50002 15.625 1.50002H14.375C14.2092 1.50002 14.0503 1.56586 13.9331 1.68307C13.8158 1.80028 13.75 1.95926 13.75 2.12502V3.74127L10.8837 0.875016ZM16.25 8.00877V15.875C16.25 16.0408 16.1841 16.1997 16.0669 16.317C15.9497 16.4342 15.7908 16.5 15.625 16.5H4.375C4.20924 16.5 4.05026 16.4342 3.93305 16.317C3.81584 16.1997 3.75 16.0408 3.75 15.875V8.00877L10 1.75877L16.25 8.00877Z" fill="#3B82F6"/>
</svg>
