<svg width="20" height="20" viewBox="0 0 20 20" fill="none" xmlns="http://www.w3.org/2000/svg">
<g clip-path="url(#clip0_73_3869)">
<path d="M3.75786e-06 3.125C3.75786e-06 2.62772 0.197548 2.15081 0.549179 1.79917C0.900809 1.44754 1.37772 1.25 1.875 1.25H15.625C16.1223 1.25 16.5992 1.44754 16.9508 1.79917C17.3025 2.15081 17.5 2.62772 17.5 3.125V16.285C17.5 16.66 17.4375 17.1025 17.2025 17.5H18.125C18.2908 17.5 18.4497 17.4342 18.5669 17.3169C18.6842 17.1997 18.75 17.0408 18.75 16.875V5.625C18.75 5.45924 18.8159 5.30027 18.9331 5.18306C19.0503 5.06585 19.2092 5 19.375 5C19.5408 5 19.6997 5.06585 19.8169 5.18306C19.9342 5.30027 20 5.45924 20 5.625V16.875C20 17.3723 19.8025 17.8492 19.4508 18.2008C19.0992 18.5525 18.6223 18.75 18.125 18.75H1.87125C1.6252 18.75 1.38157 18.7015 1.15429 18.6072C0.927015 18.5129 0.720563 18.3748 0.546753 18.2006C0.372942 18.0264 0.235185 17.8197 0.141366 17.5922C0.0475481 17.3648 -0.000489332 17.1211 3.75786e-06 16.875V3.125ZM15 17.5C15.4625 17.5 15.8175 17.2362 16.0663 16.9487C16.1813 16.8162 16.25 16.6 16.25 16.285V3.125C16.25 2.95924 16.1842 2.80027 16.0669 2.68306C15.9497 2.56585 15.7908 2.5 15.625 2.5H1.875C1.70924 2.5 1.55027 2.56585 1.43306 2.68306C1.31585 2.80027 1.25 2.95924 1.25 3.125V16.875C1.25 17.2225 1.52875 17.5 1.87125 17.5H15Z" fill="#18181B"/>
<path d="M2.5 3.75H15V6.25H2.5V3.75ZM2.5 7.5H7.5V11.25H2.5V7.5ZM2.5 12.5H7.5V13.75H2.5V12.5ZM2.5 15H7.5V16.25H2.5V15ZM8.75 7.5H11.25V8.75H8.75V7.5ZM12.5 7.5H15V8.75H12.5V7.5ZM8.75 10H11.25V11.25H8.75V10ZM12.5 10H15V11.25H12.5V10ZM8.75 12.5H11.25V13.75H8.75V12.5ZM12.5 12.5H15V13.75H12.5V12.5ZM8.75 15H11.25V16.25H8.75V15ZM12.5 15H15V16.25H12.5V15Z" fill="#18181B"/>
</g>
<defs>
<clipPath id="clip0_73_3869">
<rect width="20" height="20" fill="white"/>
</clipPath>
</defs>
</svg>
